{
	"asset":{
		"generator":"Khronos glTF Blender I/O v4.1.63",
		"version":"2.0"
	},
	"scene":0,
	"scenes":[
		{
			"name":"Scene",
			"nodes":[
				0
			]
		}
	],
	"nodes":[
		{
			"mesh":0,
			"name":"Object",
			"translation":[
				-0.2575284242630005,
				5.712679862976074,
				0.13852143287658691
			]
		}
	],
	"materials":[
		{
			"doubleSided":true,
			"emissiveFactor":[
				1,
				1,
				1
			],
			"name":"PixelArt_Simple",
			"pbrMetallicRoughness":{
				"baseColorFactor":[
					0.800000011920929,
					0.800000011920929,
					0.800000011920929,
					1
				],
				"metallicFactor":0,
				"roughnessFactor":0.5
			}
		},
		{
			"doubleSided":true,
			"name":"Material",
			"pbrMetallicRoughness":{
				"baseColorFactor":[
					0,
					0.6704676151275635,
					1,
					1
				],
				"metallicFactor":0,
				"roughnessFactor":0.5
			}
		}
	],
	"meshes":[
		{
			"name":"Cube",
			"primitives":[
				{
					"attributes":{
						"POSITION":0,
						"NORMAL":1,
						"TEXCOORD_0":2,
						"TEXCOORD_1":3
					},
					"indices":4,
					"material":0
				},
				{
					"attributes":{
						"POSITION":5,
						"NORMAL":6,
						"TEXCOORD_0":7,
						"TEXCOORD_1":8
					},
					"indices":9,
					"material":1
				}
			]
		}
	],
	"accessors":[
		{
			"bufferView":0,
			"componentType":5126,
			"count":1937,
			"max":[
				1.188628911972046,
				3.84456467628479,
				1.0170457363128662
			],
			"min":[
				-1.188628911972046,
				-1,
				-1.3602116107940674
			],
			"type":"VEC3"
		},
		{
			"bufferView":1,
			"componentType":5126,
			"count":1937,
			"type":"VEC3"
		},
		{
			"bufferView":2,
			"componentType":5126,
			"count":1937,
			"type":"VEC2"
		},
		{
			"bufferView":3,
			"componentType":5126,
			"count":1937,
			"type":"VEC2"
		},
		{
			"bufferView":4,
			"componentType":5123,
			"count":5148,
			"type":"SCALAR"
		},
		{
			"bufferView":5,
			"componentType":5126,
			"count":144,
			"max":[
				0.9317339658737183,
				3.5751850605010986,
				0.7601511478424072
			],
			"min":[
				-0.9317339658737183,
				0.0646730437874794,
				-1.1033167839050293
			],
			"type":"VEC3"
		},
		{
			"bufferView":6,
			"componentType":5126,
			"count":144,
			"type":"VEC3"
		},
		{
			"bufferView":7,
			"componentType":5126,
			"count":144,
			"type":"VEC2"
		},
		{
			"bufferView":8,
			"componentType":5126,
			"count":144,
			"type":"VEC2"
		},
		{
			"bufferView":9,
			"componentType":5123,
			"count":216,
			"type":"SCALAR"
		}
	],
	"bufferViews":[
		{
			"buffer":0,
			"byteLength":23244,
			"byteOffset":0,
			"target":34962
		},
		{
			"buffer":0,
			"byteLength":23244,
			"byteOffset":23244,
			"target":34962
		},
		{
			"buffer":0,
			"byteLength":15496,
			"byteOffset":46488,
			"target":34962
		},
		{
			"buffer":0,
			"byteLength":15496,
			"byteOffset":61984,
			"target":34962
		},
		{
			"buffer":0,
			"byteLength":10296,
			"byteOffset":77480,
			"target":34963
		},
		{
			"buffer":0,
			"byteLength":1728,
			"byteOffset":87776,
			"target":34962
		},
		{
			"buffer":0,
			"byteLength":1728,
			"byteOffset":89504,
			"target":34962
		},
		{
			"buffer":0,
			"byteLength":1152,
			"byteOffset":91232,
			"target":34962
		},
		{
			"buffer":0,
			"byteLength":1152,
			"byteOffset":92384,
			"target":34962
		},
		{
			"buffer":0,
			"byteLength":432,
			"byteOffset":93536,
			"target":34963
		}
	],
	"buffers":[
		{
			"byteLength":93968,
			"uri":"building.bin"
		}
	]
}
